<svg width="32" height="30" viewBox="0 0 32 30" fill="none" xmlns="http://www.w3.org/2000/svg">
<path d="M31 4.63995C29.66 1.88995 25.91 -0.360052 21.31 0.949948C20.0363 1.31289 18.8487 1.92845 17.8179 2.75996C16.7871 3.59146 15.9342 4.62192 15.31 5.78995C14.2979 7.44183 13.5458 9.23949 13.08 11.1199L18.36 13.4599L13.76 17.8299L17.25 21.9299L18.77 20.6299L16.54 17.9999L21.94 12.8699L15.58 9.99995C16.1033 8.53643 16.8341 7.15566 17.75 5.89995C18.7393 4.46197 20.1889 3.40386 21.86 2.89995C25.2 2.00995 28.2 3.49995 29.2 5.54995C30.75 8.72995 30.05 12.2699 27.06 16.3599C23.8794 20.4442 20.1587 24.0774 16 27.1599C11.8393 24.0681 8.11853 20.4247 4.93999 16.3299C1.93999 12.2299 1.24999 8.68995 2.79999 5.51995C3.33859 4.59359 4.11931 3.8314 5.05833 3.3152C5.99736 2.799 7.05924 2.54828 8.12999 2.58995C8.80687 2.59355 9.47997 2.69115 10.13 2.87995C11.4106 3.24325 12.5751 3.93233 13.51 4.87995L13.66 4.57995C13.9546 4.08365 14.289 3.6121 14.66 3.16995C13.5413 2.128 12.1908 1.36706 10.72 0.949948C6.19999 -0.340052 2.33999 1.88995 0.999989 4.63995C-0.880011 8.48995 -0.100011 12.8199 3.31999 17.5099C5.99999 21.1799 9.82999 24.9 15.39 29.2199C15.5657 29.357 15.7822 29.4314 16.005 29.4314C16.2278 29.4314 16.4443 29.357 16.62 29.2199C22.17 24.91 26.01 21.2199 28.69 17.5099C32.1 12.8199 32.88 8.48995 31 4.63995Z" fill="#980303"/>
</svg>
