<svg id="plyr-play-play" width="28" height="30" viewBox="0 0 28 30" fill="none" xmlns="http://www.w3.org/2000/svg">
<path d="M1.75 30C1.41848 30 1.10054 29.8683 0.866117 29.6339C0.631696 29.3995 0.5 29.0816 0.5 28.75V1.25003C0.500037 1.03282 0.556676 0.819362 0.664334 0.630705C0.771991 0.442048 0.926952 0.284701 1.11394 0.174173C1.30093 0.0636449 1.5135 0.00375019 1.73068 0.000393444C1.94787 -0.00296331 2.16218 0.0503337 2.3525 0.155031L27.3525 13.905C27.5485 14.0129 27.7119 14.1715 27.8257 14.3641C27.9396 14.5567 27.9996 14.7763 27.9996 15C27.9996 15.2238 27.9396 15.4434 27.8257 15.636C27.7119 15.8286 27.5485 15.9871 27.3525 16.095L2.3525 29.845C2.16794 29.9466 1.96069 30 1.75 30ZM3 3.36253V26.6375L24.1563 15L3 3.36253Z" fill="#980303"/>
</svg>
