<svg width="38" height="24" viewBox="0 0 38 24" fill="none" xmlns="http://www.w3.org/2000/svg">
<path d="M37 6.33325C36.6667 3.83325 36.3333 1.99992 35.3333 1.33325C34.3333 0.499918 25.6667 0.333252 19 0.333252C12.3334 0.333252 3.66669 0.499918 2.66669 1.33325C1.66669 1.99992 1.33335 3.83325 1.00002 6.33325C0.666687 8.83325 0.666687 10.3333 0.666687 11.9999C0.666687 13.6666 0.666687 15.1666 1.00002 17.6666C1.33335 20.1666 1.66669 21.9999 2.66669 22.6666C3.66669 23.4999 12.3334 23.6666 19 23.6666C25.6667 23.6666 34.3333 23.4999 35.3333 22.6666C36.3333 21.9999 36.6667 20.1666 37 17.6666C37.3333 15.1666 37.3334 13.6666 37.3334 11.9999C37.3334 10.3333 37.3333 8.83325 37 6.33325ZM15.6667 17.9999V5.99992L25.6667 11.9999L15.6667 17.9999Z" fill="white"/>
</svg>
