<svg width="31" height="26" viewBox="0 0 31 26" fill="none" xmlns="http://www.w3.org/2000/svg">
<path d="M27.4834 4.68679C28.83 3.86012 29.7217 2.73179 30.1584 1.29679C28.9285 1.96197 27.6086 2.44533 26.24 2.73179C25.0683 1.47179 23.585 0.831787 21.8067 0.831787C20.0684 0.831787 18.6 1.44179 17.4017 2.62845C16.823 3.19196 16.3654 3.8677 16.0571 4.61426C15.7487 5.36082 15.596 6.16248 15.6084 6.97012C15.6084 7.48512 15.6734 7.94512 15.8034 8.33512C10.6767 8.16012 6.43335 6.03345 3.09002 1.94012C2.52335 2.94179 2.24002 3.96179 2.24002 5.01679C2.24002 7.18512 3.15502 8.90345 4.98169 10.1651C3.94002 10.0768 3.02169 9.81346 2.24002 9.38179C2.24002 10.9301 2.69502 12.2235 3.60669 13.3618C4.49228 14.471 5.74032 15.2328 7.13169 15.5135C6.61169 15.6468 6.06335 15.7101 5.50002 15.7101C4.98002 15.7101 4.61169 15.6668 4.39335 15.5718C4.77668 16.8335 5.50002 17.8568 6.54502 18.6401C7.57808 19.4245 8.83472 19.8584 10.1317 19.8785C7.91169 21.6201 5.37335 22.4818 2.50169 22.4818C1.79835 22.4818 1.30002 22.4718 0.998352 22.4185C3.82669 24.2551 6.97502 25.1668 10.4584 25.1668C14.0234 25.1668 17.1734 24.2635 19.915 22.4568C22.6567 20.6601 24.68 18.4435 25.98 15.8335C27.2656 13.308 27.935 10.514 27.9334 7.68012V6.90012C29.1316 6.01666 30.169 4.93364 31 3.69845C29.8777 4.18489 28.6948 4.51735 27.4834 4.68679Z" fill="white"/>
</svg>
